<?xml version="1.0" encoding="UTF-8" standalone="no"?>
<!DOCTYPE svg PUBLIC "-//W3C//DTD SVG 1.1//EN"
 "http://www.w3.org/Graphics/SVG/1.1/DTD/svg11.dtd">
<!-- Generated by graphviz version 14.1.2 (20260124.0452)
 -->
<!-- Title: dependency&#45;cruiser output Pages: 1 -->
<svg width="474pt" height="1100pt"
 viewBox="0.00 0.00 474.00 1100.00" xmlns="http://www.w3.org/2000/svg" xmlns:xlink="http://www.w3.org/1999/xlink">
<g id="graph0" class="graph" transform="scale(1 1) rotate(0) translate(4 1096)">
<title>dependency&#45;cruiser output</title>
<polygon fill="white" stroke="none" points="-4,4 -4,-1096 470,-1096 470,4 -4,4"/>
<g id="clust1" class="cluster">
<title>cluster_node_modules</title>
<path fill="#ffffff" stroke="black" stroke-width="2" d="M259,-8C259,-8 376,-8 376,-8 382,-8 388,-14 388,-20 388,-20 388,-954 388,-954 388,-960 382,-966 376,-966 376,-966 259,-966 259,-966 253,-966 247,-960 247,-954 247,-954 247,-20 247,-20 247,-14 253,-8 259,-8"/>
<text xml:space="preserve" text-anchor="middle" x="317.5" y="-953.45" font-family="Helvetica,sans-Serif" font-weight="bold" font-size="9.00">node_modules</text>
</g>
<g id="clust2" class="cluster">
<title>cluster_node_modules/@nestjs</title>
<path fill="#ffffff" stroke="black" stroke-width="2" d="M278,-16C278,-16 356,-16 356,-16 362,-16 368,-22 368,-28 368,-28 368,-364 368,-364 368,-370 362,-376 356,-376 356,-376 278,-376 278,-376 272,-376 266,-370 266,-364 266,-364 266,-28 266,-28 266,-22 272,-16 278,-16"/>
<text xml:space="preserve" text-anchor="middle" x="317" y="-363.45" font-family="Helvetica,sans-Serif" font-weight="bold" font-size="9.00">@nestjs</text>
</g>
<g id="clust3" class="cluster">
<title>cluster_node_modules/@nestjs/common</title>
<path fill="#ffffff" stroke="black" stroke-width="2" d="M294,-238C294,-238 340,-238 340,-238 346,-238 352,-244 352,-250 352,-250 352,-278 352,-278 352,-284 346,-290 340,-290 340,-290 294,-290 294,-290 288,-290 282,-284 282,-278 282,-278 282,-250 282,-250 282,-244 288,-238 294,-238"/>
<text xml:space="preserve" text-anchor="middle" x="317" y="-277.45" font-family="Helvetica,sans-Serif" font-weight="bold" font-size="9.00">common</text>
</g>
<g id="clust4" class="cluster">
<title>cluster_node_modules/@nestjs/config</title>
<path fill="#ffffff" stroke="black" stroke-width="2" d="M294,-178C294,-178 340,-178 340,-178 346,-178 352,-184 352,-190 352,-190 352,-218 352,-218 352,-224 346,-230 340,-230 340,-230 294,-230 294,-230 288,-230 282,-224 282,-218 282,-218 282,-190 282,-190 282,-184 288,-178 294,-178"/>
<text xml:space="preserve" text-anchor="middle" x="317" y="-217.45" font-family="Helvetica,sans-Serif" font-weight="bold" font-size="9.00">config</text>
</g>
<g id="clust5" class="cluster">
<title>cluster_node_modules/@nestjs/core</title>
<path fill="#ffffff" stroke="black" stroke-width="2" d="M294,-118C294,-118 340,-118 340,-118 346,-118 352,-124 352,-130 352,-130 352,-158 352,-158 352,-164 346,-170 340,-170 340,-170 294,-170 294,-170 288,-170 282,-164 282,-158 282,-158 282,-130 282,-130 282,-124 288,-118 294,-118"/>
<text xml:space="preserve" text-anchor="middle" x="317" y="-157.45" font-family="Helvetica,sans-Serif" font-weight="bold" font-size="9.00">core</text>
</g>
<g id="clust6" class="cluster">
<title>cluster_node_modules/@nestjs/swagger</title>
<path fill="#ffffff" stroke="black" stroke-width="2" d="M286,-24C286,-24 348,-24 348,-24 354,-24 360,-30 360,-36 360,-36 360,-98 360,-98 360,-104 354,-110 348,-110 348,-110 286,-110 286,-110 280,-110 274,-104 274,-98 274,-98 274,-36 274,-36 274,-30 280,-24 286,-24"/>
<text xml:space="preserve" text-anchor="middle" x="317" y="-97.45" font-family="Helvetica,sans-Serif" font-weight="bold" font-size="9.00">swagger</text>
</g>
<g id="clust7" class="cluster">
<title>cluster_node_modules/@nestjs/swagger/dist</title>
<path fill="#ffffff" stroke="black" stroke-width="2" d="M294,-32C294,-32 340,-32 340,-32 346,-32 352,-38 352,-44 352,-44 352,-72 352,-72 352,-78 346,-84 340,-84 340,-84 294,-84 294,-84 288,-84 282,-78 282,-72 282,-72 282,-44 282,-44 282,-38 288,-32 294,-32"/>
<text xml:space="preserve" text-anchor="middle" x="317" y="-71.45" font-family="Helvetica,sans-Serif" font-weight="bold" font-size="9.00">dist</text>
</g>
<g id="clust8" class="cluster">
<title>cluster_node_modules/@nestjs/testing</title>
<path fill="#ffffff" stroke="black" stroke-width="2" d="M294,-298C294,-298 340,-298 340,-298 346,-298 352,-304 352,-310 352,-310 352,-338 352,-338 352,-344 346,-350 340,-350 340,-350 294,-350 294,-350 288,-350 282,-344 282,-338 282,-338 282,-310 282,-310 282,-304 288,-298 294,-298"/>
<text xml:space="preserve" text-anchor="middle" x="317" y="-337.45" font-family="Helvetica,sans-Serif" font-weight="bold" font-size="9.00">testing</text>
</g>
<g id="clust9" class="cluster">
<title>cluster_node_modules/@prisma</title>
<path fill="#ffffff" stroke="black" stroke-width="2" d="M267,-384C267,-384 368,-384 368,-384 374,-384 380,-390 380,-396 380,-396 380,-552 380,-552 380,-558 374,-564 368,-564 368,-564 267,-564 267,-564 261,-564 255,-558 255,-552 255,-552 255,-396 255,-396 255,-390 261,-384 267,-384"/>
<text xml:space="preserve" text-anchor="middle" x="317.5" y="-551.45" font-family="Helvetica,sans-Serif" font-weight="bold" font-size="9.00">@prisma</text>
</g>
<g id="clust10" class="cluster">
<title>cluster_node_modules/@prisma/adapter&#45;better&#45;sqlite3</title>
<path fill="#ffffff" stroke="black" stroke-width="2" d="M275,-392C275,-392 360,-392 360,-392 366,-392 372,-398 372,-404 372,-404 372,-466 372,-466 372,-472 366,-478 360,-478 360,-478 275,-478 275,-478 269,-478 263,-472 263,-466 263,-466 263,-404 263,-404 263,-398 269,-392 275,-392"/>
<text xml:space="preserve" text-anchor="middle" x="317.5" y="-465.45" font-family="Helvetica,sans-Serif" font-weight="bold" font-size="9.00">adapter&#45;better&#45;sqlite3</text>
</g>
<g id="clust11" class="cluster">
<title>cluster_node_modules/@prisma/adapter&#45;better&#45;sqlite3/dist</title>
<path fill="#ffffff" stroke="black" stroke-width="2" d="M294,-400C294,-400 340,-400 340,-400 346,-400 352,-406 352,-412 352,-412 352,-440 352,-440 352,-446 346,-452 340,-452 340,-452 294,-452 294,-452 288,-452 282,-446 282,-440 282,-440 282,-412 282,-412 282,-406 288,-400 294,-400"/>
<text xml:space="preserve" text-anchor="middle" x="317" y="-439.45" font-family="Helvetica,sans-Serif" font-weight="bold" font-size="9.00">dist</text>
</g>
<g id="clust12" class="cluster">
<title>cluster_node_modules/@prisma/client</title>
<path fill="#ffffff" stroke="black" stroke-width="2" d="M294,-486C294,-486 340,-486 340,-486 346,-486 352,-492 352,-498 352,-498 352,-526 352,-526 352,-532 346,-538 340,-538 340,-538 294,-538 294,-538 288,-538 282,-532 282,-526 282,-526 282,-498 282,-498 282,-492 288,-486 294,-486"/>
<text xml:space="preserve" text-anchor="middle" x="317" y="-525.45" font-family="Helvetica,sans-Serif" font-weight="bold" font-size="9.00">client</text>
</g>
<g id="clust13" class="cluster">
<title>cluster_node_modules/class&#45;validator</title>
<path fill="#ffffff" stroke="black" stroke-width="2" d="M286,-572C286,-572 348,-572 348,-572 354,-572 360,-578 360,-584 360,-584 360,-646 360,-646 360,-652 354,-658 348,-658 348,-658 286,-658 286,-658 280,-658 274,-652 274,-646 274,-646 274,-584 274,-584 274,-578 280,-572 286,-572"/>
<text xml:space="preserve" text-anchor="middle" x="317" y="-645.45" font-family="Helvetica,sans-Serif" font-weight="bold" font-size="9.00">class&#45;validator</text>
</g>
<g id="clust14" class="cluster">
<title>cluster_node_modules/class&#45;validator/cjs</title>
<path fill="#ffffff" stroke="black" stroke-width="2" d="M294,-580C294,-580 340,-580 340,-580 346,-580 352,-586 352,-592 352,-592 352,-620 352,-620 352,-626 346,-632 340,-632 340,-632 294,-632 294,-632 288,-632 282,-626 282,-620 282,-620 282,-592 282,-592 282,-586 288,-580 294,-580"/>
<text xml:space="preserve" text-anchor="middle" x="317" y="-619.45" font-family="Helvetica,sans-Serif" font-weight="bold" font-size="9.00">cjs</text>
</g>
<g id="clust15" class="cluster">
<title>cluster_node_modules/joi</title>
<path fill="#ffffff" stroke="black" stroke-width="2" d="M286,-666C286,-666 348,-666 348,-666 354,-666 360,-672 360,-678 360,-678 360,-740 360,-740 360,-746 354,-752 348,-752 348,-752 286,-752 286,-752 280,-752 274,-746 274,-740 274,-740 274,-678 274,-678 274,-672 280,-666 286,-666"/>
<text xml:space="preserve" text-anchor="middle" x="317" y="-739.45" font-family="Helvetica,sans-Serif" font-weight="bold" font-size="9.00">joi</text>
</g>
<g id="clust16" class="cluster">
<title>cluster_node_modules/joi/lib</title>
<path fill="#ffffff" stroke="black" stroke-width="2" d="M294,-674C294,-674 340,-674 340,-674 346,-674 352,-680 352,-686 352,-686 352,-714 352,-714 352,-720 346,-726 340,-726 340,-726 294,-726 294,-726 288,-726 282,-720 282,-714 282,-714 282,-686 282,-686 282,-680 288,-674 294,-674"/>
<text xml:space="preserve" text-anchor="middle" x="317" y="-713.45" font-family="Helvetica,sans-Serif" font-weight="bold" font-size="9.00">lib</text>
</g>
<g id="clust17" class="cluster">
<title>cluster_node_modules/rxjs</title>
<path fill="#ffffff" stroke="black" stroke-width="2" d="M270,-760C270,-760 364,-760 364,-760 370,-760 376,-766 376,-772 376,-772 376,-928 376,-928 376,-934 370,-940 364,-940 364,-940 270,-940 270,-940 264,-940 258,-934 258,-928 258,-928 258,-772 258,-772 258,-766 264,-760 270,-760"/>
<text xml:space="preserve" text-anchor="middle" x="317" y="-927.45" font-family="Helvetica,sans-Serif" font-weight="bold" font-size="9.00">rxjs</text>
</g>
<g id="clust18" class="cluster">
<title>cluster_node_modules/rxjs/dist</title>
<path fill="#ffffff" stroke="black" stroke-width="2" d="M278,-768C278,-768 356,-768 356,-768 362,-768 368,-774 368,-780 368,-780 368,-902 368,-902 368,-908 362,-914 356,-914 356,-914 278,-914 278,-914 272,-914 266,-908 266,-902 266,-902 266,-780 266,-780 266,-774 272,-768 278,-768"/>
<text xml:space="preserve" text-anchor="middle" x="317" y="-901.45" font-family="Helvetica,sans-Serif" font-weight="bold" font-size="9.00">dist</text>
</g>
<g id="clust19" class="cluster">
<title>cluster_node_modules/rxjs/dist/cjs</title>
<path fill="#ffffff" stroke="black" stroke-width="2" d="M286,-776C286,-776 348,-776 348,-776 354,-776 360,-782 360,-788 360,-788 360,-876 360,-876 360,-882 354,-888 348,-888 348,-888 286,-888 286,-888 280,-888 274,-882 274,-876 274,-876 274,-788 274,-788 274,-782 280,-776 286,-776"/>
<text xml:space="preserve" text-anchor="middle" x="317" y="-875.45" font-family="Helvetica,sans-Serif" font-weight="bold" font-size="9.00">cjs</text>
</g>
<g id="clust20" class="cluster">
<title>cluster_node_modules/rxjs/dist/cjs/operators</title>
<path fill="#ffffff" stroke="black" stroke-width="2" d="M294,-784C294,-784 340,-784 340,-784 346,-784 352,-790 352,-796 352,-796 352,-824 352,-824 352,-830 346,-836 340,-836 340,-836 294,-836 294,-836 288,-836 282,-830 282,-824 282,-824 282,-796 282,-796 282,-790 288,-784 294,-784"/>
<text xml:space="preserve" text-anchor="middle" x="317" y="-823.45" font-family="Helvetica,sans-Serif" font-weight="bold" font-size="9.00">operators</text>
</g>
<g id="clust21" class="cluster">
<title>cluster_src</title>
<path fill="#ffffff" stroke="black" stroke-width="2" d="M20,-974C20,-974 446,-974 446,-974 452,-974 458,-980 458,-986 458,-986 458,-1072 458,-1072 458,-1078 452,-1084 446,-1084 446,-1084 20,-1084 20,-1084 14,-1084 8,-1078 8,-1072 8,-1072 8,-986 8,-986 8,-980 14,-974 20,-974"/>
<text xml:space="preserve" text-anchor="middle" x="233" y="-1071.45" font-family="Helvetica,sans-Serif" font-weight="bold" font-size="9.00">src</text>
</g>
<!-- crypto -->
<g id="node1" class="node">
<title>crypto</title>
<g id="a_node1"><a xlink:href="https://nodejs.org/api/crypto.html" xlink:title="crypto">
<path fill="#ffffcc" stroke="grey" d="M444.08,-965.88C444.08,-965.88 401.92,-965.88 401.92,-965.88 398.96,-965.88 396,-962.92 396,-959.96 396,-959.96 396,-954.04 396,-954.04 396,-951.08 398.96,-948.12 401.92,-948.12 401.92,-948.12 444.08,-948.12 444.08,-948.12 447.04,-948.12 450,-951.08 450,-954.04 450,-954.04 450,-959.96 450,-959.96 450,-962.92 447.04,-965.88 444.08,-965.88"/>
<text xml:space="preserve" text-anchor="start" x="410.62" y="-953.33" font-family="Helvetica,sans-Serif" font-size="9.00" fill="grey">crypto</text>
</a>
</g>
</g>
<!-- node_modules/@nestjs/common/index.js -->
<g id="node2" class="node">
<title>node_modules/@nestjs/common/index.js</title>
<g id="a_node2"><a xlink:href="https://www.npmjs.com/package/@nestjs/common" xlink:title="index.js">
<polygon fill="#c40b0a" fill-opacity="0.101961" stroke="black" points="344,-263.88 342.52,-265.85 332.17,-265.85 330.69,-263.88 290,-263.88 290,-246.12 344,-246.12 344,-263.88"/>
<text xml:space="preserve" text-anchor="start" x="301.25" y="-251.32" font-family="Helvetica,sans-Serif" font-size="9.00" fill="#c40b0a">index.js</text>
</a>
</g>
</g>
<!-- node_modules/@nestjs/config/index.js -->
<g id="node3" class="node">
<title>node_modules/@nestjs/config/index.js</title>
<g id="a_node3"><a xlink:href="https://www.npmjs.com/package/@nestjs/config" xlink:title="index.js">
<polygon fill="#c40b0a" fill-opacity="0.101961" stroke="black" points="344,-203.88 342.52,-205.85 332.17,-205.85 330.69,-203.88 290,-203.88 290,-186.12 344,-186.12 344,-203.88"/>
<text xml:space="preserve" text-anchor="start" x="301.25" y="-191.32" font-family="Helvetica,sans-Serif" font-size="9.00" fill="#c40b0a">index.js</text>
</a>
</g>
</g>
<!-- node_modules/@nestjs/core/index.js -->
<g id="node4" class="node">
<title>node_modules/@nestjs/core/index.js</title>
<g id="a_node4"><a xlink:href="https://www.npmjs.com/package/@nestjs/core" xlink:title="index.js">
<polygon fill="#c40b0a" fill-opacity="0.101961" stroke="black" points="344,-143.88 342.52,-145.85 332.17,-145.85 330.69,-143.88 290,-143.88 290,-126.12 344,-126.12 344,-143.88"/>
<text xml:space="preserve" text-anchor="start" x="301.25" y="-131.32" font-family="Helvetica,sans-Serif" font-size="9.00" fill="#c40b0a">index.js</text>
</a>
</g>
</g>
<!-- node_modules/@nestjs/swagger/dist/index.js -->
<g id="node5" class="node">
<title>node_modules/@nestjs/swagger/dist/index.js</title>
<g id="a_node5"><a xlink:href="https://www.npmjs.com/package/@nestjs/swagger" xlink:title="index.js">
<polygon fill="#c40b0a" fill-opacity="0.101961" stroke="black" points="344,-57.88 342.52,-59.85 332.17,-59.85 330.69,-57.88 290,-57.88 290,-40.12 344,-40.12 344,-57.88"/>
<text xml:space="preserve" text-anchor="start" x="301.25" y="-45.33" font-family="Helvetica,sans-Serif" font-size="9.00" fill="#c40b0a">index.js</text>
</a>
</g>
</g>
<!-- node_modules/@nestjs/testing/index.js -->
<g id="node6" class="node">
<title>node_modules/@nestjs/testing/index.js</title>
<g id="a_node6"><a xlink:href="https://www.npmjs.com/package/@nestjs/testing" xlink:title="index.js">
<polygon fill="#c40b0a" fill-opacity="0.101961" stroke="black" points="344,-323.88 342.52,-325.85 332.17,-325.85 330.69,-323.88 290,-323.88 290,-306.12 344,-306.12 344,-323.88"/>
<text xml:space="preserve" text-anchor="start" x="301.25" y="-311.32" font-family="Helvetica,sans-Serif" font-size="9.00" fill="#c40b0a">index.js</text>
</a>
</g>
</g>
<!-- node_modules/@prisma/adapter&#45;better&#45;sqlite3/dist/index.js -->
<g id="node7" class="node">
<title>node_modules/@prisma/adapter&#45;better&#45;sqlite3/dist/index.js</title>
<g id="a_node7"><a xlink:href="https://www.npmjs.com/package/@prisma/adapter-better-sqlite3" xlink:title="index.js">
<polygon fill="#c40b0a" fill-opacity="0.101961" stroke="black" points="344,-425.88 342.52,-427.85 332.17,-427.85 330.69,-425.88 290,-425.88 290,-408.12 344,-408.12 344,-425.88"/>
<text xml:space="preserve" text-anchor="start" x="301.25" y="-413.32" font-family="Helvetica,sans-Serif" font-size="9.00" fill="#c40b0a">index.js</text>
</a>
</g>
</g>
<!-- node_modules/@prisma/client/default.js -->
<g id="node8" class="node">
<title>node_modules/@prisma/client/default.js</title>
<g id="a_node8"><a xlink:href="https://www.npmjs.com/package/@prisma/client" xlink:title="default.js">
<polygon fill="#c40b0a" fill-opacity="0.101961" stroke="black" points="344,-511.88 342.52,-513.85 332.17,-513.85 330.69,-511.88 290,-511.88 290,-494.12 344,-494.12 344,-511.88"/>
<text xml:space="preserve" text-anchor="start" x="298.62" y="-499.32" font-family="Helvetica,sans-Serif" font-size="9.00" fill="#c40b0a">default.js</text>
</a>
</g>
</g>
<!-- node_modules/class&#45;validator/cjs/index.js -->
<g id="node9" class="node">
<title>node_modules/class&#45;validator/cjs/index.js</title>
<g id="a_node9"><a xlink:href="https://www.npmjs.com/package/class-validator" xlink:title="index.js">
<polygon fill="#c40b0a" fill-opacity="0.101961" stroke="black" points="344,-605.88 342.52,-607.85 332.17,-607.85 330.69,-605.88 290,-605.88 290,-588.12 344,-588.12 344,-605.88"/>
<text xml:space="preserve" text-anchor="start" x="301.25" y="-593.33" font-family="Helvetica,sans-Serif" font-size="9.00" fill="#c40b0a">index.js</text>
</a>
</g>
</g>
<!-- node_modules/joi/lib/index.js -->
<g id="node10" class="node">
<title>node_modules/joi/lib/index.js</title>
<g id="a_node10"><a xlink:href="https://www.npmjs.com/package/joi" xlink:title="index.js">
<polygon fill="#c40b0a" fill-opacity="0.101961" stroke="black" points="344,-699.88 342.52,-701.85 332.17,-701.85 330.69,-699.88 290,-699.88 290,-682.12 344,-682.12 344,-699.88"/>
<text xml:space="preserve" text-anchor="start" x="301.25" y="-687.33" font-family="Helvetica,sans-Serif" font-size="9.00" fill="#c40b0a">index.js</text>
</a>
</g>
</g>
<!-- node_modules/rxjs/dist/cjs/index.js -->
<g id="node11" class="node">
<title>node_modules/rxjs/dist/cjs/index.js</title>
<g id="a_node11"><a xlink:href="https://www.npmjs.com/package/rxjs" xlink:title="index.js">
<polygon fill="#c40b0a" fill-opacity="0.101961" stroke="black" points="344,-861.88 342.52,-863.85 332.17,-863.85 330.69,-861.88 290,-861.88 290,-844.12 344,-844.12 344,-861.88"/>
<text xml:space="preserve" text-anchor="start" x="301.25" y="-849.33" font-family="Helvetica,sans-Serif" font-size="9.00" fill="#c40b0a">index.js</text>
</a>
</g>
</g>
<!-- node_modules/rxjs/dist/cjs/operators/index.js -->
<g id="node12" class="node">
<title>node_modules/rxjs/dist/cjs/operators/index.js</title>
<g id="a_node12"><a xlink:href="https://www.npmjs.com/package/rxjs" xlink:title="index.js">
<polygon fill="#c40b0a" fill-opacity="0.101961" stroke="black" points="344,-809.88 342.52,-811.85 332.17,-811.85 330.69,-809.88 290,-809.88 290,-792.12 344,-792.12 344,-809.88"/>
<text xml:space="preserve" text-anchor="start" x="301.25" y="-797.33" font-family="Helvetica,sans-Serif" font-size="9.00" fill="#c40b0a">index.js</text>
</a>
</g>
</g>
<!-- src/app.module.ts -->
<g id="node13" class="node">
<title>src/app.module.ts</title>
<g id="a_node13"><a xlink:href="src/app.module.ts" xlink:title="app.module.ts">
<path fill="#ddfeff" stroke="black" d="M150.83,-1021.88C150.83,-1021.88 88.92,-1021.88 88.92,-1021.88 85.96,-1021.88 83,-1018.92 83,-1015.96 83,-1015.96 83,-1010.04 83,-1010.04 83,-1007.08 85.96,-1004.12 88.92,-1004.12 88.92,-1004.12 150.83,-1004.12 150.83,-1004.12 153.79,-1004.12 156.75,-1007.08 156.75,-1010.04 156.75,-1010.04 156.75,-1015.96 156.75,-1015.96 156.75,-1018.92 153.79,-1021.88 150.83,-1021.88"/>
<text xml:space="preserve" text-anchor="start" x="91" y="-1009.33" font-family="Helvetica,sans-Serif" font-size="9.00">app.module.ts</text>
</a>
</g>
</g>
<!-- src/app.module.ts&#45;&gt;node_modules/@nestjs/common/index.js -->
<g id="edge5" class="edge">
<title>src/app.module.ts&#45;&gt;node_modules/@nestjs/common/index.js</title>
<path fill="none" stroke="#000000" stroke-opacity="0.200000" d="M123.25,-1003.91C137.17,-950.23 208.55,-669.11 239,-435 241.01,-419.55 238.84,-308.27 247,-295 255.16,-281.72 269.49,-272.39 282.98,-266.09"/>
<polygon fill="#000000" fill-opacity="0.200000" stroke="#000000" stroke-opacity="0.200000" points="283.46,-268.18 288.12,-263.85 281.78,-264.33 283.46,-268.18"/>
</g>
<!-- src/app.module.ts&#45;&gt;node_modules/@nestjs/config/index.js -->
<g id="edge6" class="edge">
<title>src/app.module.ts&#45;&gt;node_modules/@nestjs/config/index.js</title>
<path fill="none" stroke="#000000" stroke-opacity="0.200000" d="M120.66,-1003.98C119.6,-949.54 116.71,-659.73 169.75,-432 191.08,-340.4 185.73,-306.35 247,-235 257.14,-223.19 271.68,-214.04 284.8,-207.49"/>
<polygon fill="#000000" fill-opacity="0.200000" stroke="#000000" stroke-opacity="0.200000" points="285.62,-209.43 290.13,-204.95 283.81,-205.64 285.62,-209.43"/>
</g>
<!-- src/application -->
<g id="node14" class="node">
<title>src/application</title>
<g id="a_node14"><a xlink:href="src/application" xlink:title="application">
<polygon fill="#ffffcc" stroke="black" points="347.5,-1027.88 288.47,-1027.88 286.5,-1025.9 286.5,-1010.12 345.53,-1010.12 347.5,-1012.1 347.5,-1027.88"/>
<polyline fill="none" stroke="black" points="345.53,-1025.9 286.5,-1025.9"/>
<polyline fill="none" stroke="black" points="345.53,-1025.9 345.53,-1010.12"/>
<polyline fill="none" stroke="black" points="345.53,-1025.9 347.5,-1027.88"/>
<text xml:space="preserve" text-anchor="start" x="294.5" y="-1015.33" font-family="Helvetica,sans-Serif" font-size="9.00">application</text>
</a>
</g>
</g>
<!-- src/app.module.ts&#45;&gt;src/application -->
<g id="edge1" class="edge">
<title>src/app.module.ts&#45;&gt;src/application</title>
<path fill="none" stroke="#000000" stroke-width="2" stroke-opacity="0.200000" d="M136.09,-1022.3C145.43,-1027.45 157.85,-1033.34 169.75,-1036 205.85,-1044.07 247.87,-1037.58 277.58,-1030.42"/>
<polygon fill="#000000" fill-opacity="0.200000" stroke="#000000" stroke-width="2" stroke-opacity="0.200000" points="277.77,-1032.54 283.07,-1029.03 276.74,-1028.47 277.77,-1032.54"/>
</g>
<!-- src/domain -->
<g id="node15" class="node">
<title>src/domain</title>
<g id="a_node15"><a xlink:href="src/domain" xlink:title="domain">
<polygon fill="#ffffcc" stroke="black" points="450,-1038.88 397.97,-1038.88 396,-1036.9 396,-1021.12 448.03,-1021.12 450,-1023.1 450,-1038.88"/>
<polyline fill="none" stroke="black" points="448.03,-1036.9 396,-1036.9"/>
<polyline fill="none" stroke="black" points="448.03,-1036.9 448.03,-1021.12"/>
<polyline fill="none" stroke="black" points="448.03,-1036.9 450,-1038.88"/>
<text xml:space="preserve" text-anchor="start" x="407.62" y="-1026.33" font-family="Helvetica,sans-Serif" font-size="9.00">domain</text>
</a>
</g>
</g>
<!-- src/app.module.ts&#45;&gt;src/domain -->
<g id="edge2" class="edge">
<title>src/app.module.ts&#45;&gt;src/domain</title>
<path fill="none" stroke="#000000" stroke-width="2" stroke-opacity="0.200000" d="M132.5,-1022.35C141.91,-1029.29 155.86,-1038.19 169.75,-1042 190.69,-1047.75 313.03,-1049.64 387.03,-1039.74"/>
<polygon fill="#000000" fill-opacity="0.200000" stroke="#000000" stroke-width="2" stroke-opacity="0.200000" points="387.17,-1041.84 392.81,-1038.91 386.57,-1037.68 387.17,-1041.84"/>
</g>
<!-- src/infrastructure -->
<g id="node16" class="node">
<title>src/infrastructure</title>
<g id="a_node16"><a xlink:href="src/infrastructure" xlink:title="infrastructure">
<polygon fill="#ffffcc" stroke="black" points="239,-999.88 171.72,-999.88 169.75,-997.9 169.75,-982.12 237.03,-982.12 239,-984.1 239,-999.88"/>
<polyline fill="none" stroke="black" points="237.03,-997.9 169.75,-997.9"/>
<polyline fill="none" stroke="black" points="237.03,-997.9 237.03,-982.12"/>
<polyline fill="none" stroke="black" points="237.03,-997.9 239,-999.88"/>
<text xml:space="preserve" text-anchor="start" x="177.75" y="-987.33" font-family="Helvetica,sans-Serif" font-size="9.00">infrastructure</text>
</a>
</g>
</g>
<!-- src/app.module.ts&#45;&gt;src/infrastructure -->
<g id="edge3" class="edge">
<title>src/app.module.ts&#45;&gt;src/infrastructure</title>
<path fill="none" stroke="#000000" stroke-width="2" stroke-opacity="0.200000" d="M155.86,-1003.67C157.54,-1003.22 159.24,-1002.77 160.93,-1002.32"/>
<polygon fill="#000000" fill-opacity="0.200000" stroke="#000000" stroke-width="2" stroke-opacity="0.200000" points="161.2,-1004.42 166.46,-1000.84 160.12,-1000.36 161.2,-1004.42"/>
</g>
<!-- src/presentation -->
<g id="node17" class="node">
<title>src/presentation</title>
<g id="a_node17"><a xlink:href="src/presentation" xlink:title="presentation">
<polygon fill="#ffffcc" stroke="black" points="237.88,-1029.88 172.85,-1029.88 170.88,-1027.9 170.88,-1012.12 235.9,-1012.12 237.88,-1014.1 237.88,-1029.88"/>
<polyline fill="none" stroke="black" points="235.9,-1027.9 170.88,-1027.9"/>
<polyline fill="none" stroke="black" points="235.9,-1027.9 235.9,-1012.12"/>
<polyline fill="none" stroke="black" points="235.9,-1027.9 237.88,-1029.88"/>
<text xml:space="preserve" text-anchor="start" x="178.88" y="-1017.33" font-family="Helvetica,sans-Serif" font-size="9.00">presentation</text>
</a>
</g>
</g>
<!-- src/app.module.ts&#45;&gt;src/presentation -->
<g id="edge4" class="edge">
<title>src/app.module.ts&#45;&gt;src/presentation</title>
<path fill="none" stroke="#000000" stroke-width="2" stroke-opacity="0.200000" d="M156.82,-1016.49C158.37,-1016.64 159.94,-1016.79 161.5,-1016.94"/>
<polygon fill="#000000" fill-opacity="0.200000" stroke="#000000" stroke-width="2" stroke-opacity="0.200000" points="161.22,-1019.02 167.39,-1017.51 161.62,-1014.84 161.22,-1019.02"/>
</g>
<!-- src/application&#45;&gt;crypto -->
<g id="edge8" class="edge">
<title>src/application&#45;&gt;crypto</title>
<path fill="none" stroke="#000000" stroke-dasharray="5,2" stroke-opacity="0.200000" d="M332.51,-1009.72C348.06,-999.86 373.54,-983.94 396,-971 396.58,-970.66 397.17,-970.33 397.77,-969.99"/>
<polygon fill="#000000" fill-opacity="0.200000" stroke="#000000" stroke-opacity="0.200000" points="398.76,-971.84 402.98,-967.09 396.72,-968.17 398.76,-971.84"/>
</g>
<!-- src/application&#45;&gt;src/domain -->
<g id="edge7" class="edge">
<title>src/application&#45;&gt;src/domain</title>
<path fill="none" stroke="#000000" stroke-width="2" stroke-opacity="0.200000" d="M347.8,-1022.15C359.97,-1023.44 374.14,-1024.94 386.82,-1026.28"/>
<polygon fill="#000000" fill-opacity="0.200000" stroke="#000000" stroke-width="2" stroke-opacity="0.200000" points="386.54,-1028.36 392.72,-1026.9 386.98,-1024.18 386.54,-1028.36"/>
</g>
<!-- src/infrastructure&#45;&gt;node_modules/@nestjs/common/index.js -->
<g id="edge10" class="edge">
<title>src/infrastructure&#45;&gt;node_modules/@nestjs/common/index.js</title>
<path fill="none" stroke="#000000" stroke-opacity="0.200000" d="M207.59,-981.63C213.96,-954.22 232.3,-871.67 239,-802 240.35,-787.98 239.87,-307.15 247,-295 254.95,-281.45 269.4,-272.06 283.03,-265.79"/>
<polygon fill="#000000" fill-opacity="0.200000" stroke="#000000" stroke-opacity="0.200000" points="283.55,-267.86 288.24,-263.56 281.89,-264 283.55,-267.86"/>
</g>
<!-- src/infrastructure&#45;&gt;node_modules/@nestjs/config/index.js -->
<g id="edge11" class="edge">
<title>src/infrastructure&#45;&gt;node_modules/@nestjs/config/index.js</title>
<path fill="none" stroke="#000000" stroke-opacity="0.200000" d="M205.94,-981.7C209.3,-926.8 226.75,-639.57 239,-405 239.99,-386.12 237.18,-251.16 247,-235 255.16,-221.58 269.64,-212.2 283.23,-205.91"/>
<polygon fill="#000000" fill-opacity="0.200000" stroke="#000000" stroke-opacity="0.200000" points="283.74,-207.98 288.41,-203.67 282.07,-204.12 283.74,-207.98"/>
</g>
<!-- src/infrastructure&#45;&gt;node_modules/@nestjs/core/index.js -->
<g id="edge15" class="edge">
<title>src/infrastructure&#45;&gt;node_modules/@nestjs/core/index.js</title>
<path fill="none" stroke="#000000" stroke-opacity="0.200000" d="M205.32,-981.64C204.85,-895.83 202.83,-247.34 247,-175 255.19,-161.59 269.67,-152.22 283.25,-145.93"/>
<polygon fill="#000000" fill-opacity="0.200000" stroke="#000000" stroke-opacity="0.200000" points="283.76,-148 288.43,-143.68 282.09,-144.14 283.76,-148"/>
</g>
<!-- src/infrastructure&#45;&gt;node_modules/@nestjs/testing/index.js -->
<g id="edge16" class="edge">
<title>src/infrastructure&#45;&gt;node_modules/@nestjs/testing/index.js</title>
<path fill="none" stroke="#000000" stroke-opacity="0.200000" d="M207.58,-981.63C213.91,-954.21 232.16,-871.65 239,-802 241.2,-779.6 239.08,-418.06 247,-397 257.53,-368.99 282.06,-343.81 298.85,-328.96"/>
<polygon fill="#000000" fill-opacity="0.200000" stroke="#000000" stroke-opacity="0.200000" points="299.89,-330.83 303.06,-325.32 297.15,-327.65 299.89,-330.83"/>
</g>
<!-- src/infrastructure&#45;&gt;node_modules/@prisma/adapter&#45;better&#45;sqlite3/dist/index.js -->
<g id="edge12" class="edge">
<title>src/infrastructure&#45;&gt;node_modules/@prisma/adapter&#45;better&#45;sqlite3/dist/index.js</title>
<path fill="none" stroke="#000000" stroke-opacity="0.200000" d="M207.56,-981.63C213.85,-954.21 231.97,-871.63 239,-802 240.78,-784.36 239.83,-499.21 247,-483 256.97,-460.45 278.65,-441.82 295.06,-430.18"/>
<polygon fill="#000000" fill-opacity="0.200000" stroke="#000000" stroke-opacity="0.200000" points="295.84,-432.19 299.59,-427.06 293.46,-428.73 295.84,-432.19"/>
</g>
<!-- src/infrastructure&#45;&gt;node_modules/@prisma/client/default.js -->
<g id="edge13" class="edge">
<title>src/infrastructure&#45;&gt;node_modules/@prisma/client/default.js</title>
<path fill="none" stroke="#000000" stroke-opacity="0.200000" d="M207.53,-981.63C213.72,-954.19 231.61,-871.6 239,-802 241.64,-777.12 237.42,-600.11 247,-577 257.42,-551.85 280.51,-530.04 297.11,-516.73"/>
<polygon fill="#000000" fill-opacity="0.200000" stroke="#000000" stroke-opacity="0.200000" points="298.26,-518.5 301.71,-513.15 295.68,-515.18 298.26,-518.5"/>
</g>
<!-- src/infrastructure&#45;&gt;node_modules/joi/lib/index.js -->
<g id="edge9" class="edge">
<title>src/infrastructure&#45;&gt;node_modules/joi/lib/index.js</title>
<path fill="none" stroke="#000000" stroke-opacity="0.200000" d="M206.61,-981.92C211.52,-946.57 230.15,-818.25 247,-781 260.56,-751.02 285.82,-721.83 301.73,-705.18"/>
<polygon fill="#000000" fill-opacity="0.200000" stroke="#000000" stroke-opacity="0.200000" points="303,-706.88 305.68,-701.11 299.99,-703.95 303,-706.88"/>
</g>
<!-- src/infrastructure&#45;&gt;node_modules/rxjs/dist/cjs/index.js -->
<g id="edge17" class="edge">
<title>src/infrastructure&#45;&gt;node_modules/rxjs/dist/cjs/index.js</title>
<path fill="none" stroke="#000000" stroke-opacity="0.200000" d="M212.63,-981.95C231.3,-958.66 281.12,-896.51 304.1,-867.85"/>
<polygon fill="#000000" fill-opacity="0.200000" stroke="#000000" stroke-opacity="0.200000" points="305.51,-869.44 307.62,-863.45 302.23,-866.82 305.51,-869.44"/>
</g>
<!-- src/infrastructure&#45;&gt;node_modules/rxjs/dist/cjs/operators/index.js -->
<g id="edge18" class="edge">
<title>src/infrastructure&#45;&gt;node_modules/rxjs/dist/cjs/operators/index.js</title>
<path fill="none" stroke="#000000" stroke-opacity="0.200000" d="M206.21,-982.03C209.43,-949.41 222.13,-837.78 247,-814 256.35,-805.06 269.82,-801.29 282.37,-799.96"/>
<polygon fill="#000000" fill-opacity="0.200000" stroke="#000000" stroke-opacity="0.200000" points="282.28,-802.07 288.11,-799.54 281.97,-797.88 282.28,-802.07"/>
</g>
<!-- src/infrastructure&#45;&gt;src/domain -->
<g id="edge14" class="edge">
<title>src/infrastructure&#45;&gt;src/domain</title>
<path fill="none" stroke="#000000" stroke-width="2" stroke-opacity="0.200000" d="M239.26,-987.74C276.89,-985.4 338.8,-985.37 388,-1004 394.59,-1006.5 400.97,-1010.71 406.38,-1015.03"/>
<polygon fill="#000000" fill-opacity="0.200000" stroke="#000000" stroke-width="2" stroke-opacity="0.200000" points="404.9,-1016.52 410.81,-1018.86 407.64,-1013.34 404.9,-1016.52"/>
</g>
<!-- src/presentation&#45;&gt;node_modules/@nestjs/common/index.js -->
<g id="edge27" class="edge">
<title>src/presentation&#45;&gt;node_modules/@nestjs/common/index.js</title>
<path fill="none" stroke="#000000" stroke-opacity="0.200000" d="M233.49,-1011.78C235.63,-1010.16 237.53,-1008.24 239,-1006 260.69,-972.98 227.09,-329.12 247,-295 254.92,-281.43 269.37,-272.04 283,-265.78"/>
<polygon fill="#000000" fill-opacity="0.200000" stroke="#000000" stroke-opacity="0.200000" points="283.52,-267.84 288.21,-263.55 281.87,-263.98 283.52,-267.84"/>
</g>
<!-- src/presentation&#45;&gt;node_modules/@nestjs/swagger/dist/index.js -->
<g id="edge28" class="edge">
<title>src/presentation&#45;&gt;node_modules/@nestjs/swagger/dist/index.js</title>
<path fill="none" stroke="#000000" stroke-opacity="0.200000" d="M233.5,-1011.79C235.63,-1010.16 237.53,-1008.25 239,-1006 252.57,-985.3 237.17,-137.72 247,-115 256.73,-92.51 278.24,-73.98 294.67,-62.34"/>
<polygon fill="#000000" fill-opacity="0.200000" stroke="#000000" stroke-opacity="0.200000" points="295.45,-64.35 299.21,-59.23 293.08,-60.89 295.45,-64.35"/>
</g>
<!-- src/presentation&#45;&gt;node_modules/class&#45;validator/cjs/index.js -->
<g id="edge29" class="edge">
<title>src/presentation&#45;&gt;node_modules/class&#45;validator/cjs/index.js</title>
<path fill="none" stroke="#000000" stroke-opacity="0.200000" d="M233.46,-1011.76C235.61,-1010.14 237.51,-1008.23 239,-1006 249.32,-990.51 239.97,-688.24 247,-671 257.28,-645.79 280.4,-623.99 297.04,-610.7"/>
<polygon fill="#000000" fill-opacity="0.200000" stroke="#000000" stroke-opacity="0.200000" points="298.2,-612.47 301.65,-607.13 295.62,-609.15 298.2,-612.47"/>
</g>
<!-- src/presentation&#45;&gt;src/application -->
<g id="edge25" class="edge">
<title>src/presentation&#45;&gt;src/application</title>
<path fill="none" stroke="#000000" stroke-width="2" stroke-opacity="0.200000" d="M238.27,-1020.41C250.46,-1020.18 264.41,-1019.93 277.1,-1019.7"/>
<polygon fill="#000000" fill-opacity="0.200000" stroke="#000000" stroke-width="2" stroke-opacity="0.200000" points="277.08,-1021.8 283.04,-1019.6 277,-1017.6 277.08,-1021.8"/>
</g>
<!-- src/presentation&#45;&gt;src/domain -->
<g id="edge26" class="edge">
<title>src/presentation&#45;&gt;src/domain</title>
<path fill="none" stroke="#000000" stroke-opacity="0.200000" d="M231.07,-1030.35C236.27,-1031.87 241.76,-1033.2 247,-1034 295.8,-1041.44 353.13,-1037.83 388.52,-1034.19"/>
<polygon fill="none" stroke="#000000" stroke-opacity="0.200000" points="388.48,-1036.31 394.22,-1033.58 388.03,-1032.13 388.48,-1036.31"/>
</g>
<!-- src/main.ts -->
<g id="node18" class="node">
<title>src/main.ts</title>
<g id="a_node18"><a xlink:href="src/main.ts" xlink:title="main.ts">
<path fill="#ddfeff" stroke="black" d="M64.08,-999.88C64.08,-999.88 21.92,-999.88 21.92,-999.88 18.96,-999.88 16,-996.92 16,-993.96 16,-993.96 16,-988.04 16,-988.04 16,-985.08 18.96,-982.12 21.92,-982.12 21.92,-982.12 64.08,-982.12 64.08,-982.12 67.04,-982.12 70,-985.08 70,-988.04 70,-988.04 70,-993.96 70,-993.96 70,-996.92 67.04,-999.88 64.08,-999.88"/>
<text xml:space="preserve" text-anchor="start" x="28.38" y="-987.33" font-family="Helvetica,sans-Serif" font-size="9.00">main.ts</text>
</a>
</g>
</g>
<!-- src/main.ts&#45;&gt;node_modules/@nestjs/common/index.js -->
<g id="edge21" class="edge">
<title>src/main.ts&#45;&gt;node_modules/@nestjs/common/index.js</title>
<path fill="none" stroke="#000000" stroke-opacity="0.200000" d="M45.09,-981.92C51.74,-928.37 89.1,-648.97 169.75,-436 195.06,-369.18 197.09,-346.13 247,-295 258.2,-283.52 273.39,-274.25 286.66,-267.52"/>
<polygon fill="#000000" fill-opacity="0.200000" stroke="#000000" stroke-opacity="0.200000" points="287.56,-269.42 292.04,-264.91 285.73,-265.65 287.56,-269.42"/>
</g>
<!-- src/main.ts&#45;&gt;node_modules/@nestjs/config/index.js -->
<g id="edge22" class="edge">
<title>src/main.ts&#45;&gt;node_modules/@nestjs/config/index.js</title>
<path fill="none" stroke="#000000" stroke-opacity="0.200000" d="M43.72,-981.68C42.39,-930.15 38.42,-675.25 83,-474 106.63,-367.33 91.07,-319.8 169.75,-244 200.5,-214.38 249.68,-202.65 282.4,-198.01"/>
<polygon fill="#000000" fill-opacity="0.200000" stroke="#000000" stroke-opacity="0.200000" points="282.35,-200.14 288.03,-197.27 281.8,-195.97 282.35,-200.14"/>
</g>
<!-- src/main.ts&#45;&gt;node_modules/@nestjs/core/index.js -->
<g id="edge23" class="edge">
<title>src/main.ts&#45;&gt;node_modules/@nestjs/core/index.js</title>
<path fill="none" stroke="#000000" stroke-opacity="0.200000" d="M43.97,-982.09C43.78,-902.99 43.75,-322.18 83,-257 126.64,-184.52 229.16,-153.05 282.48,-141.19"/>
<polygon fill="#000000" fill-opacity="0.200000" stroke="#000000" stroke-opacity="0.200000" points="282.76,-143.28 288.18,-139.97 281.87,-139.17 282.76,-143.28"/>
</g>
<!-- src/main.ts&#45;&gt;node_modules/@nestjs/swagger/dist/index.js -->
<g id="edge24" class="edge">
<title>src/main.ts&#45;&gt;node_modules/@nestjs/swagger/dist/index.js</title>
<path fill="none" stroke="#000000" stroke-opacity="0.200000" d="M43.92,-981.77C43.26,-897.14 39.74,-257.54 83,-186 127.87,-111.79 229.38,-73.33 282.37,-57.67"/>
<polygon fill="#000000" fill-opacity="0.200000" stroke="#000000" stroke-opacity="0.200000" points="282.88,-59.71 288.06,-56.04 281.72,-55.68 282.88,-59.71"/>
</g>
<!-- src/main.ts&#45;&gt;src/app.module.ts -->
<g id="edge19" class="edge">
<title>src/main.ts&#45;&gt;src/app.module.ts</title>
<path fill="none" stroke="#000000" stroke-width="2" stroke-opacity="0.200000" d="M70.19,-998.69C72.93,-999.5 75.76,-1000.33 78.61,-1001.17"/>
<polygon fill="#000000" fill-opacity="0.200000" stroke="#000000" stroke-width="2" stroke-opacity="0.200000" points="77.91,-1003.15 84.26,-1002.83 79.1,-999.12 77.91,-1003.15"/>
</g>
<!-- src/main.ts&#45;&gt;src/infrastructure -->
<g id="edge20" class="edge">
<title>src/main.ts&#45;&gt;src/infrastructure</title>
<path fill="none" stroke="#000000" stroke-width="2" stroke-opacity="0.200000" d="M70.32,-991C94.81,-991 131.75,-991 160.5,-991"/>
<polygon fill="#000000" fill-opacity="0.200000" stroke="#000000" stroke-width="2" stroke-opacity="0.200000" points="160.49,-993.1 166.49,-991 160.49,-988.9 160.49,-993.1"/>
</g>
</g>
</svg>
